<svg 
 xmlns="http://www.w3.org/2000/svg"
 xmlns:xlink="http://www.w3.org/1999/xlink"
 width="20px" height="17px">
<path fill-rule="evenodd"  fill="rgb(125, 125, 125)"
 d="M9.941,1.243 C9.518,1.243 9.109,1.243 8.591,1.243 C9.448,1.952 10.210,2.860 10.148,4.337 C10.085,5.830 9.137,6.431 8.272,7.132 C8.073,7.293 7.766,7.626 7.691,7.826 C7.378,8.652 8.216,9.118 8.647,9.439 C9.042,9.732 9.376,9.986 9.679,10.245 C10.317,10.792 10.920,11.492 10.916,12.702 C10.912,14.023 10.152,14.945 9.304,15.553 C8.452,16.163 7.226,16.582 5.984,16.697 C4.530,16.831 3.158,16.659 2.102,16.190 C1.147,15.766 0.167,14.982 0.170,13.677 C0.172,13.006 0.463,12.338 0.826,11.933 C2.599,9.958 3.856,10.268 6.172,10.095 C6.048,9.851 5.710,9.560 5.590,9.195 C5.437,8.727 5.532,8.205 5.740,7.826 C4.258,8.016 3.074,7.587 2.289,6.832 C1.620,6.187 1.103,5.094 1.370,3.831 C1.599,2.751 2.238,1.971 3.040,1.431 C3.876,0.866 4.897,0.474 6.228,0.474 C7.868,0.474 9.621,0.474 11.367,0.474 M3.415,2.481 C3.119,3.349 3.348,4.517 3.658,5.275 C3.995,6.098 4.520,6.771 5.159,7.076 C6.186,7.565 7.550,7.072 7.972,6.194 C8.089,5.951 8.142,5.594 8.160,5.331 C8.270,3.644 7.372,2.006 6.359,1.431 C6.050,1.255 5.558,1.157 5.103,1.205 C4.209,1.301 3.624,1.868 3.415,2.481 ZM3.246,11.408 C2.904,11.619 2.496,11.933 2.271,12.533 C2.120,12.934 2.118,13.461 2.233,13.865 C2.560,15.011 3.920,15.673 5.346,15.796 C6.888,15.930 8.445,15.691 9.116,14.596 C9.480,14.003 9.494,13.140 9.135,12.552 C8.712,11.860 8.135,11.559 7.522,11.126 C7.336,10.995 7.152,10.779 6.903,10.714 C6.732,10.669 6.378,10.705 6.190,10.714 C4.966,10.772 3.991,10.950 3.246,11.408 ZM15.178,0.493 C15.490,0.493 16.024,0.493 16.337,0.493 C16.337,1.493 16.318,2.470 16.318,3.470 C17.299,3.514 18.324,3.458 19.337,3.470 C19.337,3.795 19.337,4.336 19.337,4.661 C18.318,4.661 17.374,4.661 16.355,4.661 C16.355,5.686 16.337,6.632 16.337,7.657 C16.018,7.657 15.515,7.657 15.196,7.657 C15.196,6.638 15.178,5.680 15.178,4.661 C14.190,4.617 13.192,4.673 12.173,4.661 C12.173,4.336 12.173,3.795 12.173,3.470 C13.198,3.470 14.134,3.470 15.159,3.470 C15.159,2.482 15.178,1.537 15.178,0.549 C15.176,0.523 15.156,0.496 15.178,0.493 Z"/>
</svg>