<svg 
 xmlns="http://www.w3.org/2000/svg"
 xmlns:xlink="http://www.w3.org/1999/xlink"
 width="10px" height="20px">
<path fill-rule="evenodd"  fill="rgb(125, 125, 125)"
 d="M9.158,0.475 C9.158,1.581 9.158,3.561 9.158,3.561 C9.158,3.561 6.887,3.334 6.318,4.206 C6.008,4.683 6.192,6.078 6.164,7.080 C7.156,7.080 8.186,7.080 9.177,7.080 C8.922,8.251 8.740,9.046 8.553,10.060 C7.695,10.060 6.148,10.060 6.148,10.060 C6.148,10.060 6.148,19.648 6.148,19.648 C6.148,19.648 3.309,19.648 1.975,19.648 C1.975,16.692 1.974,13.244 1.975,10.097 C1.326,10.097 0.847,10.097 0.199,10.097 C0.199,8.992 0.199,8.186 0.199,7.080 C0.828,7.080 1.326,7.080 1.955,7.080 C2.045,4.874 2.079,2.688 3.173,1.576 C4.402,0.324 5.575,0.475 9.158,0.475 Z"/>
</svg>