<svg 
 xmlns="http://www.w3.org/2000/svg"
 xmlns:xlink="http://www.w3.org/1999/xlink"
 width="20px" height="17px">
<path fill-rule="evenodd"  fill="rgb(125, 125, 125)"
 d="M19.952,2.124 C19.860,2.845 18.814,3.568 18.180,4.116 C18.806,13.333 8.356,19.081 0.763,14.411 C2.892,14.427 5.290,13.843 6.557,12.640 C4.715,12.342 3.410,11.507 2.904,9.873 C3.443,9.822 4.201,9.989 4.565,9.762 C2.880,9.122 1.547,8.130 1.465,5.888 C2.065,5.952 2.377,6.304 3.125,6.220 C2.036,5.521 0.792,2.865 1.908,0.906 C3.885,3.099 6.353,4.800 10.210,5.113 C9.253,1.044 14.647,-1.477 17.074,1.460 C18.017,1.259 18.812,0.910 19.619,0.574 C19.289,1.498 18.617,2.081 17.959,2.677 C18.674,2.544 19.430,2.451 19.952,2.124 Z"/>
</svg>