<svg 
 xmlns="http://www.w3.org/2000/svg"
 xmlns:xlink="http://www.w3.org/1999/xlink"
 width="18px" height="20px">
<path fill-rule="evenodd"  fill="rgb(125, 125, 125)"
 d="M14.467,19.474 C14.467,19.474 14.467,11.541 14.467,11.541 C14.467,10.855 14.376,10.329 14.194,9.962 C13.861,9.292 13.228,8.956 12.294,8.956 C11.145,8.956 10.358,9.447 9.930,10.428 C9.708,10.947 9.597,11.609 9.597,12.415 C9.597,12.415 9.597,19.474 9.597,19.474 C9.597,19.474 6.525,19.474 6.525,19.474 C6.525,19.474 6.525,6.268 6.525,6.268 C6.525,6.268 9.490,6.268 9.490,6.268 C9.490,6.268 9.490,8.358 9.490,8.358 C9.926,7.688 10.340,7.206 10.729,6.911 C11.428,6.384 12.314,6.121 13.386,6.121 C14.728,6.121 15.826,6.474 16.680,7.180 C17.534,7.886 17.961,9.056 17.961,10.692 C17.961,10.692 17.961,19.474 17.961,19.474 C17.961,19.474 14.467,19.474 14.467,19.474 ZM2.098,5.096 C0.932,5.096 -0.013,4.150 -0.013,2.984 C-0.013,1.818 0.932,0.873 2.098,0.873 C3.264,0.873 4.209,1.818 4.209,2.984 C4.209,4.150 3.264,5.096 2.098,5.096 ZM3.757,19.474 C3.757,19.474 0.299,19.474 0.299,19.474 C0.299,19.474 0.299,6.432 0.299,6.432 C0.299,6.432 3.757,6.432 3.757,6.432 C3.757,6.432 3.757,19.474 3.757,19.474 Z"/>
</svg>