<svg 
 xmlns="http://www.w3.org/2000/svg"
 xmlns:xlink="http://www.w3.org/1999/xlink"
 width="36px" height="36px">
<path fill-rule="evenodd"  fill="rgb(46, 46, 46)"
 d="M-0.000,-0.000 C-0.000,-0.000 36.000,-0.000 36.000,-0.000 C36.000,-0.000 36.000,36.000 36.000,36.000 C36.000,36.000 -0.000,36.000 -0.000,36.000 C-0.000,36.000 -0.000,-0.000 -0.000,-0.000 Z"/>
<path fill-rule="evenodd"  fill="rgb(125, 125, 125)"
 d="M22.158,8.475 C22.158,9.581 22.158,11.561 22.158,11.561 C22.158,11.561 19.887,11.334 19.318,12.206 C19.008,12.683 19.192,14.078 19.164,15.080 C20.156,15.080 21.186,15.080 22.177,15.080 C21.922,16.251 21.740,17.046 21.553,18.060 C20.695,18.060 19.148,18.060 19.148,18.060 C19.148,18.060 19.148,27.648 19.148,27.648 C19.148,27.648 16.309,27.648 14.975,27.648 C14.975,24.692 14.974,21.244 14.975,18.097 C14.326,18.097 13.847,18.097 13.199,18.097 C13.199,16.992 13.199,16.186 13.199,15.080 C13.828,15.080 14.326,15.080 14.955,15.080 C15.045,12.874 15.079,10.688 16.173,9.576 C17.402,8.324 18.575,8.475 22.158,8.475 Z"/>
</svg>