<svg 
 xmlns="http://www.w3.org/2000/svg"
 xmlns:xlink="http://www.w3.org/1999/xlink"
 width="36px" height="36px">
<path fill-rule="evenodd"  fill="rgb(46, 46, 46)"
 d="M-0.000,-0.000 C-0.000,-0.000 36.000,-0.000 36.000,-0.000 C36.000,-0.000 36.000,36.000 36.000,36.000 C36.000,36.000 -0.000,36.000 -0.000,36.000 C-0.000,36.000 -0.000,-0.000 -0.000,-0.000 Z"/>
<path fill-rule="evenodd"  fill="rgb(125, 125, 125)"
 d="M23.467,27.474 C23.467,27.474 23.467,19.541 23.467,19.541 C23.467,18.855 23.376,18.329 23.194,17.962 C22.861,17.292 22.228,16.956 21.294,16.956 C20.145,16.956 19.358,17.447 18.930,18.428 C18.708,18.947 18.597,19.609 18.597,20.415 C18.597,20.415 18.597,27.474 18.597,27.474 C18.597,27.474 15.525,27.474 15.525,27.474 C15.525,27.474 15.525,14.268 15.525,14.268 C15.525,14.268 18.490,14.268 18.490,14.268 C18.490,14.268 18.490,16.358 18.490,16.358 C18.926,15.688 19.340,15.206 19.729,14.911 C20.428,14.384 21.314,14.121 22.386,14.121 C23.728,14.121 24.826,14.474 25.680,15.180 C26.534,15.886 26.961,17.056 26.961,18.692 C26.961,18.692 26.961,27.474 26.961,27.474 C26.961,27.474 23.467,27.474 23.467,27.474 ZM11.098,13.096 C9.932,13.096 8.987,12.150 8.987,10.984 C8.987,9.818 9.932,8.873 11.098,8.873 C12.264,8.873 13.209,9.818 13.209,10.984 C13.209,12.150 12.264,13.096 11.098,13.096 ZM12.757,27.474 C12.757,27.474 9.299,27.474 9.299,27.474 C9.299,27.474 9.299,14.432 9.299,14.432 C9.299,14.432 12.757,14.432 12.757,14.432 C12.757,14.432 12.757,27.474 12.757,27.474 Z"/>
</svg>