<svg 
 xmlns="http://www.w3.org/2000/svg"
 xmlns:xlink="http://www.w3.org/1999/xlink"
 width="36px" height="36px">
<path fill-rule="evenodd"  fill="rgb(46, 46, 46)"
 d="M0.000,-0.000 C0.000,-0.000 36.000,-0.000 36.000,-0.000 C36.000,-0.000 36.000,36.000 36.000,36.000 C36.000,36.000 0.000,36.000 0.000,36.000 C0.000,36.000 0.000,-0.000 0.000,-0.000 Z"/>
<path fill-rule="evenodd"  fill="rgb(125, 125, 125)"
 d="M23.583,21.876 C21.376,21.876 19.587,20.129 19.587,17.974 C19.587,15.818 21.376,14.071 23.583,14.071 C25.791,14.071 27.580,15.818 27.580,17.974 C27.580,20.129 25.791,21.876 23.583,21.876 ZM12.366,21.876 C10.158,21.876 8.369,20.129 8.369,17.974 C8.369,15.818 10.158,14.071 12.366,14.071 C14.573,14.071 16.362,15.818 16.362,17.974 C16.362,20.129 14.573,21.876 12.366,21.876 Z"/>
</svg>