<svg 
 xmlns="http://www.w3.org/2000/svg"
 xmlns:xlink="http://www.w3.org/1999/xlink"
 width="36px" height="36px">
<path fill-rule="evenodd"  fill="rgb(46, 46, 46)"
 d="M-0.000,-0.000 C-0.000,-0.000 36.000,-0.000 36.000,-0.000 C36.000,-0.000 36.000,36.000 36.000,36.000 C36.000,36.000 -0.000,36.000 -0.000,36.000 C-0.000,36.000 -0.000,-0.000 -0.000,-0.000 Z"/>
<path fill-rule="evenodd"  fill="rgb(125, 125, 125)"
 d="M18.941,11.243 C18.518,11.243 18.109,11.243 17.591,11.243 C18.448,11.952 19.210,12.860 19.148,14.337 C19.085,15.830 18.137,16.431 17.272,17.132 C17.073,17.293 16.766,17.626 16.691,17.826 C16.378,18.652 17.216,19.118 17.647,19.439 C18.042,19.732 18.376,19.986 18.679,20.245 C19.317,20.792 19.920,21.492 19.916,22.702 C19.912,24.023 19.152,24.945 18.304,25.553 C17.452,26.163 16.226,26.582 14.984,26.697 C13.530,26.831 12.158,26.659 11.102,26.190 C10.147,25.766 9.167,24.982 9.170,23.677 C9.172,23.006 9.463,22.338 9.826,21.933 C11.599,19.958 12.856,20.268 15.172,20.095 C15.048,19.851 14.710,19.560 14.590,19.195 C14.437,18.727 14.532,18.205 14.740,17.826 C13.258,18.016 12.074,17.587 11.289,16.832 C10.620,16.187 10.103,15.094 10.370,13.831 C10.599,12.751 11.238,11.971 12.040,11.431 C12.876,10.866 13.897,10.474 15.228,10.474 C16.868,10.474 18.621,10.474 20.367,10.474 M12.415,12.481 C12.119,13.349 12.348,14.517 12.658,15.275 C12.995,16.098 13.520,16.771 14.159,17.076 C15.186,17.565 16.550,17.072 16.972,16.194 C17.089,15.951 17.142,15.594 17.160,15.331 C17.270,13.644 16.372,12.006 15.359,11.431 C15.050,11.255 14.558,11.157 14.103,11.205 C13.209,11.301 12.624,11.868 12.415,12.481 ZM12.246,21.408 C11.904,21.619 11.496,21.933 11.271,22.533 C11.120,22.934 11.118,23.461 11.233,23.865 C11.560,25.011 12.920,25.673 14.346,25.796 C15.888,25.930 17.445,25.691 18.116,24.596 C18.480,24.003 18.494,23.140 18.135,22.552 C17.712,21.860 17.135,21.559 16.522,21.126 C16.336,20.995 16.152,20.779 15.903,20.714 C15.732,20.669 15.378,20.705 15.190,20.714 C13.966,20.772 12.991,20.950 12.246,21.408 ZM24.178,10.493 C24.490,10.493 25.024,10.493 25.337,10.493 C25.337,11.493 25.318,12.470 25.318,13.470 C26.299,13.514 27.324,13.458 28.337,13.470 C28.337,13.795 28.337,14.336 28.337,14.661 C27.318,14.661 26.374,14.661 25.355,14.661 C25.355,15.686 25.337,16.632 25.337,17.657 C25.018,17.657 24.515,17.657 24.196,17.657 C24.196,16.638 24.178,15.680 24.178,14.661 C23.190,14.617 22.192,14.673 21.173,14.661 C21.173,14.336 21.173,13.795 21.173,13.470 C22.198,13.470 23.134,13.470 24.159,13.470 C24.159,12.482 24.178,11.537 24.178,10.549 C24.176,10.523 24.156,10.496 24.178,10.493 Z"/>
</svg>